<svg width="39" height="40" viewBox="0 0 39 40" fill="none" xmlns="http://www.w3.org/2000/svg">
<rect width="38.6667" height="40" fill="white"/>
<g opacity="0.1">
<g opacity="0.1">
<path opacity="0.1" d="M0 20.7155H19.3366V1.42401C8.65787 1.42401 0 10.0617 0 20.7155Z" fill="#1E1E1E"/>
<path opacity="0.1" d="M38.6663 20.7155C38.6663 10.0617 30.0085 1.42401 19.3298 1.42401V20.7155H38.6663Z" fill="#1E1E1E"/>
<path opacity="0.1" d="M0 20.7156C0 31.363 8.65787 40.0007 19.3366 40.0007V20.7156H0Z" fill="#1E1E1E"/>
<path opacity="0.1" d="M19.3371 40.0005C30.0158 40.0005 38.6737 31.3628 38.6737 20.709H19.3371V40.0005Z" fill="#1E1E1E"/>
</g>
</g>
<path d="M0 19.2915H19.3366V0C8.65787 0 0 8.63768 0 19.2915Z" fill="#F37920"/>
<path d="M38.6672 19.2915C38.6672 8.63768 30.0093 0 19.3371 0V19.2915H38.6672Z" fill="#3CBDB2"/>
<path d="M0 19.2916C0 29.9454 8.65787 38.5831 19.3366 38.5831V19.2916H0Z" fill="#FFC624"/>
<path d="M19.3371 38.5765C30.0158 38.5765 38.6737 29.9388 38.6737 19.285H19.3371V38.5765Z" fill="#9ECD43"/>
<path d="M19.9248 9.91313C19.7547 9.75886 19.5614 9.67401 19.3372 9.67401C19.0898 9.67401 18.8888 9.75114 18.7264 9.91313C18.5718 10.0674 18.4868 10.2757 18.4868 10.5225C18.4868 10.7693 18.5641 10.9699 18.7264 11.1319C18.8811 11.2861 19.0898 11.371 19.3372 11.371C19.5614 11.371 19.7624 11.2938 19.9248 11.1396C20.0949 10.9853 20.1799 10.777 20.1799 10.5302C20.1799 10.2757 20.0949 10.0674 19.9248 9.91313Z" fill="white"/>
<path d="M19.3372 28.9035C19.0898 28.9035 18.8888 28.8263 18.7264 28.6644C18.5718 28.5101 18.4868 28.3018 18.4868 28.055C18.4868 27.8082 18.5641 27.6076 18.7264 27.4456C18.8811 27.2914 19.0898 27.2065 19.3372 27.2065C19.5614 27.2065 19.7624 27.2836 19.9248 27.4456C20.0949 27.6076 20.1799 27.8082 20.1799 28.055C20.1799 28.3018 20.0949 28.5024 19.9248 28.6644C19.7547 28.8186 19.5614 28.9035 19.3372 28.9035ZM19.3372 27.4456C19.1517 27.4456 19.0125 27.4996 18.8965 27.6153C18.7806 27.731 18.7264 27.8699 18.7264 28.055C18.7264 28.2401 18.7806 28.379 18.8965 28.4947C19.0125 28.6104 19.1517 28.6644 19.3372 28.6644C19.4996 28.6644 19.6387 28.6104 19.7702 28.4947C19.8939 28.379 19.948 28.2401 19.948 28.055C19.948 27.8776 19.8862 27.731 19.7702 27.6153C19.6387 27.5073 19.4996 27.4456 19.3372 27.4456Z" fill="white"/>
<path d="M12.9668 15.8758C12.9668 15.467 13.0441 15.0891 13.1987 14.7265C13.3534 14.3717 13.5621 14.0555 13.825 13.7932C14.0879 13.531 14.3971 13.3227 14.7605 13.1684C15.1161 13.0142 15.5027 12.937 15.9125 12.937C16.3223 12.937 16.7011 13.0142 17.0645 13.1684C17.4201 13.3227 17.7294 13.531 17.9845 13.7855C18.1392 13.5387 18.317 13.315 18.518 13.1144C18.5412 13.0913 18.5721 13.0682 18.5953 13.045C18.2629 12.7288 17.8763 12.4819 17.4356 12.2891C16.9562 12.0885 16.446 11.9806 15.9048 11.9806C15.3636 11.9806 14.8533 12.0808 14.3739 12.2891C13.8946 12.4896 13.4848 12.7673 13.1369 13.1144C12.789 13.4615 12.5106 13.8781 12.3096 14.3486C12.1086 14.8268 12.0004 15.3359 12.0004 15.8758V19.2929H12.9591V15.8758H12.9668Z" fill="white"/>
<path d="M18.8507 22.7099C18.8507 23.1187 18.7733 23.4966 18.6187 23.8592C18.611 23.8746 18.6032 23.8823 18.5955 23.8977C18.4409 24.2371 18.2399 24.5379 17.9925 24.7848L17.9847 24.7925C17.7219 25.047 17.4203 25.2553 17.0647 25.4096C16.7013 25.5638 16.3225 25.641 15.9127 25.641C15.5029 25.641 15.1241 25.5638 14.7607 25.4096C14.3973 25.2553 14.0881 25.047 13.8252 24.7848C13.5623 24.5225 13.3536 24.214 13.1989 23.8515C13.0443 23.4966 12.967 23.111 12.967 22.7022V19.2851H12.0083V22.7022C12.0083 23.2421 12.1088 23.7512 12.3176 24.2294C12.5186 24.7076 12.7969 25.1165 13.1448 25.4636C13.4927 25.8107 13.9102 26.0884 14.3819 26.2889C14.8612 26.4894 15.3638 26.5974 15.9127 26.5974C16.4539 26.5974 16.9642 26.4972 17.4435 26.2889C17.8842 26.1038 18.2708 25.8492 18.6032 25.533C18.6264 25.5098 18.6574 25.4867 18.6806 25.4636C18.8816 25.263 19.0594 25.0316 19.214 24.7925C19.2604 24.7231 19.2913 24.6382 19.3377 24.5611C19.3996 24.4531 19.4614 24.3451 19.5156 24.2294C19.7166 23.7512 19.8248 23.2498 19.8248 22.7022V19.2851H18.8661V22.7099H18.8507Z" fill="white"/>
<path d="M26.6592 15.8758C26.6592 15.3359 26.5587 14.8268 26.35 14.3486C26.149 13.8704 25.8706 13.4615 25.5227 13.1144C25.1748 12.7673 24.7573 12.4896 24.2857 12.2891C23.8063 12.0885 23.296 11.9806 22.7548 11.9806C22.2136 11.9806 21.7034 12.0808 21.224 12.2891C20.7833 12.4742 20.3967 12.7288 20.0643 13.045C20.0411 13.0682 20.0102 13.0913 19.987 13.1144C19.786 13.315 19.6081 13.5464 19.4535 13.7932C19.4071 13.8626 19.3762 13.9475 19.3298 14.0246C19.2679 14.1326 19.2061 14.2406 19.152 14.3563C18.951 14.8345 18.8427 15.3436 18.8427 15.8836V18.7915V19.2929H19.8014V18.7992V15.8758C19.8014 15.467 19.8787 15.0891 20.0334 14.7265C20.0411 14.7111 20.0488 14.7034 20.0566 14.688C20.2112 14.3486 20.4122 14.0478 20.6596 13.7932L20.6673 13.7855C20.9302 13.531 21.2317 13.3227 21.5874 13.1684C21.943 13.0142 22.3296 12.937 22.7394 12.937C23.1491 12.937 23.528 13.0142 23.8914 13.1684C24.247 13.3227 24.564 13.531 24.8269 13.7932C25.0897 14.0555 25.2985 14.364 25.4531 14.7265C25.6077 15.0891 25.6851 15.467 25.6851 15.8758V19.2929H26.6438V15.8758H26.6592Z" fill="white"/>
<path d="M25.7006 19.2928V22.7099C25.7006 23.1187 25.6233 23.4967 25.4686 23.8592C25.314 24.2217 25.1053 24.5303 24.8424 24.7925C24.5795 25.0548 24.2703 25.263 23.9069 25.4173C23.5435 25.5716 23.1647 25.6487 22.7549 25.6487C22.3451 25.6487 21.9663 25.5716 21.6029 25.4173C21.2473 25.263 20.938 25.0548 20.6829 24.8002C20.5282 25.0471 20.3504 25.2708 20.1494 25.479C20.1262 25.5022 20.0953 25.5253 20.0721 25.5484C20.4045 25.8647 20.7911 26.1192 21.2318 26.3044C21.7112 26.5049 22.2137 26.6129 22.7626 26.6129C23.3038 26.6129 23.8141 26.5126 24.2935 26.3044C24.7728 26.1038 25.1826 25.8261 25.5305 25.479C25.8784 25.1319 26.1567 24.7154 26.3578 24.2449C26.5588 23.7666 26.667 23.2653 26.667 22.7176V19.3006H25.7006V19.2928Z" fill="white"/>
</svg>
