<svg width="375" height="44" viewBox="0 0 375 44" fill="none" xmlns="http://www.w3.org/2000/svg">
<rect width="375" height="44" fill="#F7FDFC"/>
<path d="M38.1443 28.192C40.8163 28.192 42.4163 26.128 42.4163 21.616C42.4163 18.64 40.9603 17.28 39.0403 17.28C37.1202 17.28 35.6002 18.592 35.6002 20.848C35.6002 22.848 36.9922 24.192 38.8323 24.192C39.9043 24.192 40.9283 23.712 41.4563 22.736C41.2483 25.856 40.1123 27.376 38.0963 27.376C37.3602 27.376 36.5762 27.12 36.0163 26.832V27.776C36.6083 28.016 37.4243 28.192 38.1443 28.192ZM38.9283 23.424C37.4722 23.424 36.4963 22.224 36.4963 20.816C36.4963 19.232 37.5203 18.064 39.0243 18.064C40.5603 18.064 41.4723 19.36 41.4723 21.248C41.4243 22.464 40.2882 23.424 38.9283 23.424ZM43.9665 23.056H44.9585V22.064H43.9665V23.056ZM43.9665 28H44.9585V27.008H43.9665V28ZM51.1926 28H52.0886V25.056H53.6566V24.256H52.0886V17.28H51.1126L46.3286 24.4V25.056H51.1926V28ZM51.1926 24.256H47.3206L51.1926 18.544V24.256ZM56.6316 28H57.5276V17.184L54.6316 17.696V18.576L56.6316 18.208V28Z" fill="#011C34"/>
<path fill-rule="evenodd" clip-rule="evenodd" d="M339.589 16.9998H354.411C355.659 16.9998 356.111 17.1298 356.568 17.3738C357.024 17.6178 357.382 17.9759 357.626 18.4322C357.87 18.8885 358 19.3411 358 20.5893V24.9104C358 26.1585 357.87 26.6111 357.626 27.0674C357.382 27.5237 357.024 27.8818 356.568 28.1258C356.111 28.3699 355.659 28.4998 354.411 28.4998H339.589C338.341 28.4998 337.889 28.3699 337.432 28.1258C336.976 27.8818 336.618 27.5237 336.374 27.0674C336.13 26.6111 336 26.1585 336 24.9104V20.5893C336 19.3411 336.13 18.8885 336.374 18.4322C336.618 17.9759 336.976 17.6178 337.432 17.3738C337.889 17.1298 338.341 16.9998 339.589 16.9998ZM339.589 17.9998C338.602 17.9998 338.258 18.0664 337.904 18.2556C337.622 18.4064 337.407 18.6218 337.256 18.9038C337.067 19.2577 337 19.6023 337 20.5893V24.9104C337 25.8974 337.067 26.2419 337.256 26.5958C337.407 26.8778 337.622 27.0932 337.904 27.244C338.258 27.4333 338.602 27.4998 339.589 27.4998H354.411C355.398 27.4998 355.742 27.4333 356.096 27.244C356.378 27.0932 356.593 26.8778 356.744 26.5958C356.933 26.2419 357 25.8974 357 24.9104V20.5893C357 19.6023 356.933 19.2577 356.744 18.9038C356.593 18.6218 356.378 18.4064 356.096 18.2556C355.742 18.0664 355.398 17.9998 354.411 17.9998H339.589ZM360.5 22.6898C360.5 23.9264 359 24.6898 359 24.6898V20.6898C359 20.6898 360.5 21.4532 360.5 22.6898Z" fill="black" fill-opacity="0.36"/>
<rect x="338" y="18.9165" width="18" height="7.66667" rx="1.6" fill="black"/>
<path fill-rule="evenodd" clip-rule="evenodd" d="M307.623 18.4057C307.6 18.5216 307.6 18.661 307.6 18.9398V26.6398C307.6 26.9186 307.6 27.058 307.623 27.1739C307.718 27.65 308.09 28.0221 308.566 28.1168C308.682 28.1398 308.821 28.1398 309.1 28.1398C309.379 28.1398 309.518 28.1398 309.634 28.1168C310.11 28.0221 310.482 27.65 310.577 27.1739C310.6 27.058 310.6 26.9186 310.6 26.6398V18.9398C310.6 18.661 310.6 18.5216 310.577 18.4057C310.482 17.9297 310.11 17.5576 309.634 17.4629C309.518 17.4398 309.379 17.4398 309.1 17.4398C308.821 17.4398 308.682 17.4398 308.566 17.4629C308.09 17.5576 307.718 17.9297 307.623 18.4057ZM302.9 21.3398C302.9 21.061 302.9 20.9216 302.923 20.8057C303.018 20.3297 303.39 19.9576 303.866 19.8629C303.982 19.8398 304.121 19.8398 304.4 19.8398C304.679 19.8398 304.818 19.8398 304.934 19.8629C305.41 19.9576 305.782 20.3297 305.877 20.8057C305.9 20.9216 305.9 21.061 305.9 21.3398V26.6398C305.9 26.9186 305.9 27.058 305.877 27.1739C305.782 27.65 305.41 28.0221 304.934 28.1168C304.818 28.1398 304.679 28.1398 304.4 28.1398C304.121 28.1398 303.982 28.1398 303.866 28.1168C303.39 28.0221 303.018 27.65 302.923 27.1739C302.9 27.058 302.9 26.9186 302.9 26.6398V21.3398ZM298.323 23.1057C298.3 23.2216 298.3 23.361 298.3 23.6398V26.6398C298.3 26.9186 298.3 27.058 298.323 27.1739C298.418 27.65 298.79 28.0221 299.266 28.1168C299.382 28.1398 299.521 28.1398 299.8 28.1398C300.079 28.1398 300.218 28.1398 300.334 28.1168C300.81 28.0221 301.182 27.65 301.277 27.1739C301.3 27.058 301.3 26.9186 301.3 26.6398V23.6398C301.3 23.361 301.3 23.2216 301.277 23.1057C301.182 22.6297 300.81 22.2576 300.334 22.1629C300.218 22.1398 300.079 22.1398 299.8 22.1398C299.521 22.1398 299.382 22.1398 299.266 22.1629C298.79 22.2576 298.418 22.6297 298.323 23.1057ZM293.523 25.1057C293.5 25.2216 293.5 25.361 293.5 25.6398V26.6398C293.5 26.9186 293.5 27.058 293.523 27.1739C293.618 27.65 293.99 28.0221 294.466 28.1168C294.582 28.1398 294.721 28.1398 295 28.1398C295.279 28.1398 295.418 28.1398 295.534 28.1168C296.01 28.0221 296.382 27.65 296.477 27.1739C296.5 27.058 296.5 26.9186 296.5 26.6398V25.6398C296.5 25.361 296.5 25.2216 296.477 25.1057C296.382 24.6297 296.01 24.2576 295.534 24.1629C295.418 24.1398 295.279 24.1398 295 24.1398C294.721 24.1398 294.582 24.1398 294.466 24.1629C293.99 24.2576 293.618 24.6297 293.523 25.1057Z" fill="black"/>
<path fill-rule="evenodd" clip-rule="evenodd" d="M323.3 19.5362C325.535 19.5363 327.684 20.3948 329.303 21.9344C329.425 22.0532 329.62 22.0517 329.74 21.931L330.906 20.7546C330.967 20.6934 331 20.6104 331 20.5241C330.999 20.4378 330.965 20.3553 330.903 20.2948C326.653 16.2215 319.947 16.2215 315.697 20.2948C315.635 20.3553 315.601 20.4378 315.6 20.5241C315.599 20.6104 315.633 20.6933 315.694 20.7546L316.86 21.931C316.98 22.0519 317.175 22.0534 317.297 21.9344C318.917 20.3947 321.066 19.5362 323.3 19.5362ZM323.3 23.3636C324.528 23.3635 325.712 23.8198 326.622 24.6438C326.745 24.7608 326.939 24.7582 327.059 24.6381L328.223 23.4617C328.285 23.4 328.319 23.3163 328.318 23.2293C328.317 23.1423 328.281 23.0593 328.218 22.9989C325.447 20.4211 321.156 20.4211 318.385 22.9989C318.322 23.0593 318.286 23.1424 318.286 23.2294C318.285 23.3164 318.319 23.4001 318.38 23.4617L319.544 24.6381C319.664 24.7582 319.858 24.7608 319.981 24.6438C320.891 23.8203 322.074 23.3641 323.3 23.3636ZM325.538 26.1712C325.6 26.11 325.635 26.0259 325.633 25.9387C325.631 25.8515 325.593 25.7689 325.529 25.7103C324.242 24.6224 322.358 24.6224 321.072 25.7103C321.008 25.7688 320.97 25.8514 320.968 25.9386C320.966 26.0259 321 26.11 321.063 26.1712L323.077 28.2037C323.136 28.2634 323.216 28.297 323.3 28.297C323.384 28.297 323.465 28.2634 323.524 28.2037L325.538 26.1712Z" fill="black"/>
</svg>
